<svg width="24" height="24" viewBox="0 0 24 24" fill="none" xmlns="http://www.w3.org/2000/svg">
<path d="M11.6178 0.731934C5.22487 0.731934 0.0422363 5.91456 0.0422363 12.3075C0.0422363 17.736 3.77977 22.2913 8.82164 23.5424V15.845H6.43475V12.3075H8.82164V10.7833C8.82164 6.84339 10.6047 5.01722 14.4729 5.01722C15.2063 5.01722 16.4717 5.16122 16.9894 5.30476V8.5112C16.7162 8.4825 16.2416 8.46814 15.6522 8.46814C13.7542 8.46814 13.0208 9.18722 13.0208 11.0564V12.3075H16.8019L16.1522 15.845H13.0208V23.7984C18.7526 23.1062 23.1939 18.2259 23.1939 12.3075C23.1935 5.91456 18.0108 0.731934 11.6178 0.731934Z" fill="black"/>
</svg>
