<svg width="24" height="24" viewBox="0 0 24 24" fill="none" xmlns="http://www.w3.org/2000/svg">
<g clip-path="url(#clip0_7_448)">
<path d="M11.6181 2.9078C14.711 2.9078 15.0773 2.92136 16.2936 2.97562C17.4241 3.02536 18.0345 3.21528 18.4415 3.37354C18.9796 3.58155 19.3685 3.83477 19.7709 4.23721C20.1779 4.64417 20.4266 5.02853 20.6346 5.56662C20.7928 5.97359 20.9828 6.58855 21.0325 7.71448C21.0868 8.93537 21.1003 9.30164 21.1003 12.39C21.1003 15.483 21.0868 15.8492 21.0325 17.0656C20.9828 18.196 20.7928 18.8065 20.6346 19.2135C20.4266 19.7516 20.1733 20.1404 19.7709 20.5429C19.3639 20.9498 18.9796 21.1985 18.4415 21.4065C18.0345 21.5648 17.4196 21.7547 16.2936 21.8045C15.0727 21.8587 14.7065 21.8723 11.6181 21.8723C8.52516 21.8723 8.15889 21.8587 6.94252 21.8045C5.81207 21.7547 5.20162 21.5648 4.79466 21.4065C4.25657 21.1985 3.86769 20.9453 3.46525 20.5429C3.05829 20.1359 2.80959 19.7516 2.60158 19.2135C2.44332 18.8065 2.2534 18.1915 2.20366 17.0656C2.1494 15.8447 2.13584 15.4784 2.13584 12.39C2.13584 9.29712 2.1494 8.93085 2.20366 7.71448C2.2534 6.58403 2.44332 5.97359 2.60158 5.56662C2.80959 5.02853 3.06281 4.63965 3.46525 4.23721C3.87221 3.83025 4.25657 3.58155 4.79466 3.37354C5.20162 3.21528 5.81659 3.02536 6.94252 2.97562C8.15889 2.92136 8.52516 2.9078 11.6181 2.9078ZM11.6181 0.823242C8.47542 0.823242 8.08202 0.836808 6.84756 0.891069C5.61763 0.945331 4.77205 1.14429 4.03952 1.42917C3.27533 1.7276 2.62871 2.121 1.98662 2.76762C1.34 3.40972 0.946599 4.05634 0.648159 4.816C0.363285 5.55306 0.164325 6.39411 0.110064 7.62405C0.0558018 8.86302 0.0422363 9.25642 0.0422363 12.3991C0.0422363 15.5417 0.0558018 15.9351 0.110064 17.1696C0.164325 18.3995 0.363285 19.2451 0.648159 19.9776C0.946599 20.7418 1.34 21.3884 1.98662 22.0305C2.62871 22.6726 3.27533 23.0706 4.035 23.3645C4.77205 23.6494 5.61311 23.8483 6.84304 23.9026C8.0775 23.9568 8.47089 23.9704 11.6136 23.9704C14.7562 23.9704 15.1496 23.9568 16.3841 23.9026C17.614 23.8483 18.4596 23.6494 19.1921 23.3645C19.9518 23.0706 20.5984 22.6726 21.2405 22.0305C21.8826 21.3884 22.2805 20.7418 22.5744 19.9822C22.8593 19.2451 23.0583 18.404 23.1125 17.1741C23.1668 15.9397 23.1804 15.5463 23.1804 12.4036C23.1804 9.26095 23.1668 8.86755 23.1125 7.63309C23.0583 6.40316 22.8593 5.55758 22.5744 4.82505C22.2896 4.05634 21.8962 3.40972 21.2495 2.76762C20.6074 2.12552 19.9608 1.7276 19.2012 1.43369C18.4641 1.14881 17.623 0.949853 16.3931 0.895591C15.1541 0.836808 14.7607 0.823242 11.6181 0.823242Z" fill="black"/>
<path d="M11.6181 6.45312C8.33522 6.45312 5.67188 9.11647 5.67188 12.3993C5.67188 15.6821 8.33522 18.3455 11.6181 18.3455C14.9009 18.3455 17.5642 15.6821 17.5642 12.3993C17.5642 9.11647 14.9009 6.45312 11.6181 6.45312ZM11.6181 16.2564C9.48828 16.2564 7.76095 14.5291 7.76095 12.3993C7.76095 10.2695 9.48828 8.5422 11.6181 8.5422C13.7478 8.5422 15.4752 10.2695 15.4752 12.3993C15.4752 14.5291 13.7478 16.2564 11.6181 16.2564Z" fill="black"/>
<path d="M19.1876 6.21681C19.1876 6.98552 18.5636 7.60501 17.7995 7.60501C17.0307 7.60501 16.4113 6.981 16.4113 6.21681C16.4113 5.4481 17.0353 4.82861 17.7995 4.82861C18.5636 4.82861 19.1876 5.45262 19.1876 6.21681Z" fill="black"/>
</g>
<defs>
<clipPath id="clip0_7_448">
<rect width="23.1517" height="23.1517" fill="white" transform="translate(0.0422363 0.823242)"/>
</clipPath>
</defs>
</svg>
