<svg width="47" height="50" viewBox="0 0 47 50" fill="none" xmlns="http://www.w3.org/2000/svg">
<path d="M45.8903 12.1712L23.7421 0.101156C23.6189 0.0347358 23.4814 0 23.3418 0C23.2022 0 23.0647 0.0347358 22.9414 0.101156L0.793252 12.1712C0.655635 12.2434 0.540081 12.3522 0.459028 12.4858C0.377965 12.6195 0.334479 12.7731 0.333252 12.9299V37.07C0.333661 37.226 0.37587 37.3789 0.455374 37.5126C0.534885 37.6461 0.64871 37.7554 0.784734 37.8287L22.9329 49.8988C23.0561 49.9653 23.1936 50 23.3333 50C23.4729 50 23.6104 49.9653 23.7336 49.8988L45.8818 37.8287C46.0178 37.7554 46.1316 37.6461 46.2111 37.5126C46.2907 37.3789 46.3328 37.226 46.3333 37.07V12.9299C46.3337 12.7748 46.2927 12.6225 46.2148 12.489C46.1368 12.3554 46.0247 12.2457 45.8903 12.1712ZM23.3333 1.84269L43.6925 12.9299L37.7295 16.1802L18.0773 4.70502L23.3333 1.84269ZM2.97399 12.9299L9.38844 9.4813L29.0321 20.9134L23.3333 24.0171L2.97399 12.9299ZM16.314 5.66201L35.9662 17.1372L30.7955 19.9564L11.1518 8.47259L16.314 5.66201ZM31.9284 21.2927L36.5625 18.7753V25.2069L34.7736 23.4136C34.6742 23.3137 34.5521 23.2401 34.4178 23.1994C34.2836 23.1587 34.1415 23.1521 34.0042 23.1802C33.8669 23.2084 33.7385 23.2704 33.6306 23.3607C33.5226 23.451 33.4383 23.5669 33.3851 23.6981L31.9284 27.2502V21.2927ZM2.03696 14.3697L22.4814 25.5173V47.7003L2.03696 36.5527V14.3697ZM24.1851 47.7003V25.5173L30.2247 22.2238V31.5868C30.2346 31.7798 30.3083 31.964 30.4339 32.1095C30.5596 32.2551 30.73 32.3536 30.9176 32.3895C31.1054 32.4253 31.2995 32.3962 31.4689 32.3069C31.6383 32.2176 31.7731 32.0734 31.8518 31.8971L34.4584 25.5259L36.7925 27.8709C36.9117 27.9926 37.0639 28.0754 37.2298 28.1091C37.3957 28.1428 37.5677 28.1258 37.724 28.0601C37.8802 27.9944 38.0136 27.8832 38.1072 27.7404C38.2007 27.5977 38.2502 27.43 38.2492 27.2588V17.8441L44.621 14.3955V36.5527L24.1851 47.7003Z" fill="black"/>
</svg>
