<svg width="39" height="50" viewBox="0 0 39 50" fill="none" xmlns="http://www.w3.org/2000/svg">
<path d="M38.4434 18.2508L35.1868 14.6943L36.2058 10.0042C36.3004 9.58818 36.0483 9.1722 35.6385 9.03701L31.0268 7.56032L29.5455 2.99501C29.409 2.58943 28.9888 2.35025 28.5686 2.43344L23.8307 3.44218L20.2379 0.218386C19.9228 -0.0727954 19.429 -0.0727954 19.1139 0.218386L15.5211 3.44218L10.7832 2.43344C10.363 2.33985 9.94283 2.58943 9.80626 2.99501L8.31452 7.56032L3.69224 9.03701C3.28253 9.1722 3.04092 9.58818 3.12496 10.0042L4.14396 14.6943L0.887357 18.2508C0.593212 18.5628 0.593212 19.0516 0.887357 19.3636L4.14396 22.9201L3.12496 27.6102C3.03042 28.0262 3.28253 28.4422 3.69224 28.5774L8.30402 30.0541L8.49311 30.6468L3.00941 45.6947C2.88335 46.0275 2.9884 46.4018 3.27204 46.6202C3.54516 46.8386 3.93385 46.8698 4.23851 46.6826L9.83778 43.2924L11.9493 49.4384C12.0649 49.7712 12.38 50 12.7372 50H12.7477C13.1049 50 13.4201 49.7816 13.5356 49.4488L18.2314 36.5953L19.1139 37.3856C19.2714 37.5312 19.471 37.604 19.6812 37.604C19.8913 37.604 20.0803 37.5312 20.2484 37.3856L21.1309 36.5953L25.8267 49.4488C25.9423 49.7816 26.2679 50 26.6146 50H26.6251C26.9823 50 27.2974 49.7712 27.413 49.4384L29.5245 43.2924L35.1238 46.6826C35.4284 46.8698 35.8171 46.8386 36.0903 46.6202C36.3634 46.4018 36.4685 46.0275 36.3529 45.6947L30.8587 30.6572L31.0478 30.0645L35.6596 28.5878C36.0693 28.4526 36.3109 28.0366 36.2268 27.6206L35.2078 22.9305L38.4645 19.374C38.7376 19.0516 38.7376 18.5732 38.4434 18.2508ZM12.7582 46.6618L11.0774 41.7741C10.9933 41.5349 10.8043 41.3478 10.5626 41.2542C10.321 41.1606 10.0584 41.1918 9.83778 41.327L5.38357 44.0204L9.32302 33.2363L9.77475 34.6194C9.91131 35.025 10.3315 35.2641 10.7517 35.1809L15.4896 34.1722L16.8553 35.3993L12.7582 46.6618ZM33.9367 44.0308L29.4825 41.3374C29.2619 41.2022 28.9993 41.1814 28.7576 41.2646C28.516 41.3478 28.3269 41.5349 28.2429 41.7845L26.5621 46.6722L22.444 35.4097L23.8097 34.1826L28.5475 35.1913C28.9677 35.2849 29.388 35.0354 29.5245 34.6298L29.9762 33.2467L33.9367 44.0308ZM33.6636 22.1298C33.485 22.3274 33.4114 22.5977 33.464 22.8577L34.4094 27.2359L30.1128 28.6086C29.8607 28.6918 29.6506 28.8893 29.5665 29.1493L29.1568 30.3972L28.1799 33.4027L23.7572 32.4667C23.4945 32.4147 23.2214 32.4875 23.0218 32.6643L19.6706 35.6593L16.3195 32.6539C16.1619 32.5187 15.9623 32.4355 15.7522 32.4355C15.6892 32.4355 15.6366 32.4459 15.5736 32.4563L11.1509 33.3923L10.1739 30.3869L9.76424 29.1389C9.6802 28.8893 9.4806 28.6814 9.21797 28.5982L4.93185 27.2359L5.87732 22.8577C5.92984 22.5977 5.85631 22.3274 5.67772 22.1298L2.65223 18.8124L5.68822 15.495C5.86681 15.2974 5.94035 15.027 5.88782 14.767L4.94235 10.3889L9.23898 9.01621C9.49111 8.93302 9.70121 8.73544 9.78525 8.47546L11.1614 4.22213L15.5841 5.15807C15.8468 5.21007 16.1199 5.13727 16.3195 4.96048L19.6706 1.96547L23.0218 4.97088C23.2214 5.14767 23.4945 5.22047 23.7572 5.16847L28.1799 4.23253L29.5665 8.48586C29.6506 8.73544 29.8502 8.94342 30.1128 9.02661L34.4094 10.3993L33.464 14.7774C33.4114 15.0374 33.485 15.3078 33.6636 15.5054L36.6891 18.8124L33.6636 22.1298Z" fill="black"/>
<path d="M19.6707 6.74915C12.7163 6.74915 7.06445 12.344 7.06445 19.2283C7.06445 26.1127 12.7163 31.7076 19.6707 31.7076C26.6251 31.7076 32.2769 26.1127 32.2769 19.2283C32.2769 12.344 26.6251 6.74915 19.6707 6.74915ZM19.6707 30.0437C13.6512 30.0437 8.74529 25.1872 8.74529 19.2283C8.74529 13.2695 13.6512 8.41304 19.6707 8.41304C25.6902 8.41304 30.5961 13.2695 30.5961 19.2283C30.5961 25.1872 25.6902 30.0437 19.6707 30.0437Z" fill="black"/>
<path d="M24.3667 13.0511L17.1496 20.1227L14.975 17.9908C14.3237 17.3565 13.2627 17.3565 12.6009 17.9908L11.2667 19.2907C10.9515 19.6027 10.7729 20.0187 10.7729 20.4659C10.7729 20.913 10.9515 21.329 11.2667 21.641L15.9625 26.2375C16.2882 26.5599 16.7189 26.7159 17.1496 26.7159C17.5803 26.7159 18.011 26.5599 18.3367 26.2375L28.075 16.7117C28.3902 16.3997 28.5688 15.9838 28.5688 15.5366C28.5688 15.0894 28.3902 14.6734 28.075 14.3615L26.7409 13.0615C26.0895 12.4168 25.018 12.4168 24.3667 13.0511ZM19.0826 23.1697L17.1496 25.052L12.4643 20.4659L13.7984 19.1763L16.5613 21.8802C16.887 22.2026 17.4122 22.2026 17.7379 21.8802L25.5538 14.2367L24.9655 13.6439L26.8879 15.5262L19.0826 23.1697Z" fill="black"/>
</svg>
