<svg width="24" height="20" viewBox="0 0 24 20" fill="none" xmlns="http://www.w3.org/2000/svg">
<path d="M11.2837 5.16812L11.3339 5.99565L10.4975 5.89432C7.4529 5.50589 4.79309 4.1886 2.53476 1.97623L1.43069 0.878483L1.14631 1.68912C0.544087 3.49618 0.92884 5.40456 2.18347 6.68807C2.8526 7.39738 2.70205 7.49871 1.54779 7.0765C1.14631 6.9414 0.795013 6.84007 0.761556 6.89073C0.644458 7.00895 1.04594 8.54579 1.36378 9.15377C1.79871 9.99819 2.68532 10.8257 3.65556 11.3155L4.47525 11.7039L3.50501 11.7208C2.56822 11.7208 2.53476 11.7377 2.63513 12.0923C2.9697 13.1901 4.29124 14.3554 5.76334 14.862L6.8005 15.2167L5.89716 15.7571C4.5589 16.534 2.98643 16.9731 1.41396 17.0068C0.661186 17.0237 0.0422363 17.0913 0.0422363 17.142C0.0422363 17.3108 2.0831 18.2566 3.27081 18.6281C6.83395 19.7259 11.0662 19.253 14.2446 17.3784C16.5029 16.0442 18.7613 13.3927 19.8152 10.8257C20.3839 9.45776 20.9527 6.95828 20.9527 5.75921C20.9527 4.98235 21.0029 4.88102 21.9397 3.95216C22.4917 3.41173 23.0103 2.82064 23.1107 2.65176C23.2779 2.33088 23.2612 2.33088 22.4081 2.61798C20.9862 3.12463 20.7854 3.05708 21.488 2.2971C22.0066 1.75668 22.6255 0.777153 22.6255 0.490051C22.6255 0.439386 22.3746 0.523828 22.0902 0.675823C21.7891 0.844706 21.12 1.09803 20.6181 1.25003L19.7148 1.53713L18.8951 0.979813C18.4434 0.675823 17.8078 0.338056 17.4732 0.236726C16.62 0.00028941 15.3152 0.0340661 14.5457 0.30428C12.4547 1.06425 11.1331 3.0233 11.2837 5.16812Z" fill="black"/>
</svg>
