<svg width="24" height="25" viewBox="0 0 24 25" fill="none" xmlns="http://www.w3.org/2000/svg">
<g clip-path="url(#clip0_7_449)">
<path d="M22.9631 7.93239C22.9631 7.93239 22.737 6.33619 22.0406 5.63531C21.1589 4.71286 20.1731 4.70834 19.7209 4.65408C16.4833 4.41895 11.6224 4.41895 11.6224 4.41895H11.6133C11.6133 4.41895 6.75236 4.41895 3.51474 4.65408C3.06256 4.70834 2.07681 4.71286 1.19505 5.63531C0.498695 6.33619 0.277126 7.93239 0.277126 7.93239C0.277126 7.93239 0.0419922 9.80895 0.0419922 11.681V13.4354C0.0419922 15.3075 0.272605 17.184 0.272605 17.184C0.272605 17.184 0.498695 18.7802 1.19053 19.4811C2.07229 20.4036 3.22987 20.3719 3.74536 20.4714C5.5993 20.6477 11.6178 20.702 11.6178 20.702C11.6178 20.702 16.4833 20.6929 19.7209 20.4623C20.1731 20.4081 21.1589 20.4036 22.0406 19.4811C22.737 18.7802 22.9631 17.184 22.9631 17.184C22.9631 17.184 23.1937 15.312 23.1937 13.4354V11.681C23.1937 9.80895 22.9631 7.93239 22.9631 7.93239ZM9.22579 15.5652V9.05832L15.4795 12.3231L9.22579 15.5652Z" fill="black"/>
</g>
<defs>
<clipPath id="clip0_7_449">
<rect width="23.1517" height="23.1517" fill="white" transform="translate(0.0419922 0.986328)"/>
</clipPath>
</defs>
</svg>
